# xmcd
#
# Track frame offsets:
#	150
#	14542
#	27500
#	42783
#	56788
#	69794
#	84377
#	98374
#	111171
#	124384
#	140599
#	153582
#	169145
#	184745
#	198986
#	214220
#
# Disc length: 3060 seconds
#
# Revision: 0
# Processed by: cddbd v1.5.2PL0 Copyright (c) Steve Scherf et al.
# Submitted via: EasyCDDAExtractor 16.0.6.1
#
DISCID=de0bf210
DTITLE=Ρεπάνης Αντώνης - Τραγούδια 45 στροφές-Ρεπάνης Αντώνης 2
DYEAR=1997
DGENRE=Λαϊκή
TTITLE0=Ρεπάνης Αντώνης-Χιώτης Μανώλης - Όπως νομίζεις [Μαν. Χιώτη]
TTITLE1=Ρεπάνης Αντώνης - Με φτάνει αυτό που έπαθα [Αντ. Ρεπάνη-Δημ. Γκούτη]
TTITLE2=Ρεπάνης Αντώνης-Γκρέϋ Καίτη - Το χαστούκι [Βασ. Τσιτσάνη-Α. Τσόκα]
TTITLE3=Ρεπάνης Αντώνης - Η γυναίκα μου γκρινιάζει [Θ. Δερβενιώτη]
TTITLE4=Ρεπάνης Αντώνης-Παπαδοπούλου Λ. - Γιατί να μού φύγεις [Αντ. Ρεπάνη]
TTITLE5=Ρεπάνης Αντώνης - Παρηγοριά ο πόνος μου [Μαν. Χιώτη]
TTITLE6=Ρεπάνης Αντώνης - Στης γειτονιάς τα σκαλοπάτια [Στέλ. Μακρυδάκη-Ν. Γκο
TTITLE6=ύμα]
TTITLE7=Ρεπάνης Αντώνης-Χρυσάφη Άννα - Να μπορούσα, να σ' αφήσω [Ζαχ. Δελμούζο
TTITLE7=υ-Ν. Δαλέζιου]
TTITLE8=Ρεπάνης Αντώνης-Δημητρίου Φούλη - Διπλή ζωή [28/5/64, Αντ. Ρεπάνη-Δημ.
TTITLE8=Γκούτη]
TTITLE9=Ρεπάνης Αντώνης-Πάνου Πόλυ-Κλειδωνιάρης Α. - Πάνε οι ελπίδες μου [Απ. 
TTITLE9=Καλδάρα]
TTITLE10=Ρεπάνης Αντώνης-Γκίκα Βούλα - Αγάπη ξεχασμένη [Ν. Καρανικόλα-Κ. Σιμόπ
TTITLE10=ουλου]
TTITLE11=Ρεπάνης Αντώνης - Φεύγω το πρωϊ [Π. Πετσά]
TTITLE12=Ρεπάνης Αντώνης - Μέρα, νύχτα με το δάκρυ [Αντ. Ρεπάνη-Δημ. Γκούτη]
TTITLE13=Ρεπάνης Αντώνης - Με προσμένει ο γκρεμός [Γ. Μουφλουζέλη]
TTITLE14=Ρεπάνης Αντώνης - Μπαμπέση ντουνιά [Στέλ. Μακρυδάκη]
TTITLE15=Ρεπάνης Αντώνης - Τέτοια άπονη ψυχή [Αντ. Ρεπάνη-Δημ. Γκούτη]
EXTD=
EXTT0=
EXTT1=
EXTT2=
EXTT3=
EXTT4=
EXTT5=
EXTT6=
EXTT7=
EXTT8=
EXTT9=
EXTT10=
EXTT11=
EXTT12=
EXTT13=
EXTT14=
EXTT15=
PLAYORDER=
